<svg xmlns="http://www.w3.org/2000/svg" viewBox="0 0 698.19 698.19"><defs><style>.cls-1{fill:#95c11f;}.cls-2{fill:#f9b233;}</style></defs><g id="Слой_2" data-name="Слой 2"><g id="Layer_1" data-name="Layer 1"><path class="cls-1" d="M349.1,579.94c-90.6,0-174.54,7.18-243.4,19.4a349.08,349.08,0,0,0,486.79,0C523.63,587.12,439.69,579.94,349.1,579.94Z"/><path class="cls-2" d="M233,568.49c-24.72-1.47-39.76-3.41-39.76-5.54,0-4.18,57.92-7.63,133.31-8.21,22-34.56,23.13-76.7,19.11-109.38a42.45,42.45,0,0,0-9.42-22.16,32.51,32.51,0,0,0-6.18-5.8c-72.32-50.63-51.59-105.24-51.59-105.24,37.4,10.44,55,40.59,65.57,50.39,5.53,5.14-16.6-25.26-16.6-25.26,55.89,34.14,32.36,87.87,32.36,87.87-14.07-44.08-41.67-59.66-41.67-59.66,37.73,41.33,17.13,29.09,34.31,75.68,6.09,39.19,5.53,90.21,4.86,113.48,82.23.23,147.59,3.85,147.59,8.29,0,2.13-15,4.07-39.76,5.54,52.81,5.25,98.66,14,133.14,25.06A347.91,347.91,0,0,0,698.19,349.1C698.19,156.3,541.89,0,349.1,0S0,156.3,0,349.1A347.91,347.91,0,0,0,99.89,593.55C134.37,582.47,180.22,573.74,233,568.49ZM482.5,500.33q4.86-4.69,9.4-9.73L557.09,563Zm27.85-33.78a193,193,0,0,0,9.82-17l117.07,78.91Zm25.18-150.87q-1.63-6.58-3.72-13L627,282.41ZM537,402l92.6,30.05-95.86-16.93Q535.64,408.66,537,402Zm3.9-30.07c.16-3.25.25-6.52.25-9.81s-.09-6.55-.25-9.8l140.88,9.8Zm96.3-176.17L520.17,274.67a192.81,192.81,0,0,0-9.82-17Zm-149.94,33q-4.69-4.86-9.73-9.4l72.35-65.19ZM515.46,74,453.52,200.87a192.81,192.81,0,0,0-17-9.82ZM419,81.58l-16.93,95.86q-6.46-1.86-13.12-3.26Zm14,312.16S398,410.63,405.55,408.66c14.43-3.77,45.26-22.65,84.5-13.85,0,0-7.85,60-98.62,70.73-15.94,1.88-28.59,14.73-29.47,30.75,0,.47,0,.95,0,1.44,0,0-12.54-46.15,65.82-73.69,0,0-32.81.69-67.24,34C360.49,458.05,365.35,397.5,433.06,393.74ZM349.1,29.4l9.8,140.88c-3.25-.16-6.52-.25-9.8-.25s-6.56.09-9.81.25ZM162.66,408.57q1.64,6.58,3.72,13l-95.2,20.27Zm-1.51-86.32L68.55,292.2l95.86,16.93Q162.55,315.6,161.15,322.25ZM178,449.57a193,193,0,0,0,9.82,17L61,528.48ZM148.27,570.12l62.62-74.59q4.7,4.86,9.73,9.4ZM302.65,175.69q-6.58,1.63-13,3.72L269.38,84.2ZM339,483.24c-34.78-33.65-67.92-34.35-67.92-34.35,79.15,27.82,66.49,74.43,66.49,74.43,0-.49,0-1-.05-1.45-.89-16.19-13.67-29.16-29.76-31.07-91.7-10.86-99.63-71.44-99.63-71.44,39.64-8.89,70.78,10.18,85.36,14,7.65,2-27.79-15.07-27.79-15.07C334.1,422.08,339,483.24,339,483.24ZM261.64,191.05a192.81,192.81,0,0,0-17,9.82L182.73,74Zm-45.95,32.87q-4.86,4.7-9.4,9.73L141.1,161.3ZM187.84,257.7a192.81,192.81,0,0,0-9.82,17L61,195.76Zm-30.59,94.62c-.16,3.25-.25,6.52-.25,9.8s.09,6.56.25,9.81L16.37,362.12Z"/></g></g></svg>